<svg xmlns="http://www.w3.org/2000/svg" viewBox="0 0 1200 900" width="1200" height="900" role="img" aria-label="Ilustración de referencia — proyecto-04"><defs><linearGradient id="skyp103" x1="0" y1="0" x2="1" y2="1"><stop offset="0" stop-color="#5C638A"/><stop offset=".55" stop-color="#7C8EAE"/><stop offset="1" stop-color="#9DB3CB"/></linearGradient><linearGradient id="blkp103" x1="0" y1="0" x2="0" y2="1"><stop offset="0" stop-color="#0E1526" stop-opacity=".34"/><stop offset="1" stop-color="#0E1526" stop-opacity=".72"/></linearGradient><radialGradient id="glowp103" cx=".5" cy=".5" r=".5"><stop offset="0" stop-color="#8FD3F2" stop-opacity=".50"/><stop offset=".45" stop-color="#2E9BC9" stop-opacity=".20"/><stop offset="1" stop-color="#2E9BC9" stop-opacity="0"/></radialGradient><linearGradient id="hazep103" x1="0" y1="0" x2="0" y2="1"><stop offset="0" stop-color="#C6D6E6" stop-opacity="0"/><stop offset="1" stop-color="#C6D6E6" stop-opacity=".30"/></linearGradient><filter id="grp103"><feTurbulence type="fractalNoise" baseFrequency="0.9" numOctaves="3" stitchTiles="stitch"/><feColorMatrix type="saturate" values="0"/></filter></defs><rect width="1200" height="900" fill="url(#skyp103)"/><circle cx="911" cy="323" r="558" fill="url(#glowp103)"/><rect x="0" y="405" width="1200" height="495" fill="url(#hazep103)"/><g fill="#0E1526" opacity=".16"><rect x="-40" y="550" width="149" height="350" rx="2"/><rect x="121" y="719" width="148" height="181" rx="2"/><rect x="294" y="571" width="75" height="329" rx="2"/><rect x="387" y="511" width="119" height="389" rx="2"/><rect x="522" y="708" width="146" height="192" rx="2"/><rect x="689" y="705" width="70" height="195" rx="2"/><rect x="772" y="527" width="134" height="373" rx="2"/><rect x="912" y="681" width="65" height="219" rx="2"/><rect x="986" y="706" width="148" height="194" rx="2"/><rect x="1159" y="663" width="126" height="237" rx="2"/></g><rect x="120" y="198" width="792" height="702" fill="url(#blkp103)"/><rect x="120" y="198" width="792" height="702" fill="none" stroke="#E8EFF7" stroke-opacity=".28"/><rect x="141.0" y="219.0" width="88.5" height="49.5" fill="#DCE8F4" opacity="0.18"/><rect x="141.0" y="274.5" width="88.5" height="49.5" fill="#DCE8F4" opacity="0.26"/><rect x="141.0" y="330.0" width="88.5" height="49.5" fill="#DCE8F4" opacity="0.26"/><rect x="141.0" y="385.5" width="88.5" height="49.5" fill="#DCE8F4" opacity="0.13"/><rect x="141.0" y="441.0" width="88.5" height="49.5" fill="#DCE8F4" opacity="0.08"/><rect x="141.0" y="496.5" width="88.5" height="49.5" fill="#DCE8F4" opacity="0.05"/><rect x="141.0" y="552.0" width="88.5" height="49.5" fill="#DCE8F4" opacity="0.26"/><rect x="141.0" y="607.5" width="88.5" height="49.5" fill="#DCE8F4" opacity="0.18"/><rect x="141.0" y="663.0" width="88.5" height="49.5" fill="#DCE8F4" opacity="0.05"/><rect x="141.0" y="718.5" width="88.5" height="49.5" fill="#DCE8F4" opacity="0.05"/><rect x="141.0" y="774.0" width="88.5" height="49.5" fill="#DCE8F4" opacity="0.18"/><rect x="141.0" y="829.5" width="88.5" height="49.5" fill="#DCE8F4" opacity="0.08"/><rect x="235.5" y="219.0" width="88.5" height="49.5" fill="#DCE8F4" opacity="0.06"/><rect x="235.5" y="274.5" width="88.5" height="49.5" fill="#DCE8F4" opacity="0.1"/><rect x="235.5" y="330.0" width="88.5" height="49.5" fill="#DCE8F4" opacity="0.08"/><rect x="235.5" y="385.5" width="88.5" height="49.5" fill="#DCE8F4" opacity="0.18"/><rect x="235.5" y="441.0" width="88.5" height="49.5" fill="#DCE8F4" opacity="0.08"/><rect x="235.5" y="496.5" width="88.5" height="49.5" fill="#DCE8F4" opacity="0.26"/><rect x="235.5" y="552.0" width="88.5" height="49.5" fill="#DCE8F4" opacity="0.18"/><rect x="235.5" y="607.5" width="88.5" height="49.5" fill="#DCE8F4" opacity="0.18"/><rect x="235.5" y="663.0" width="88.5" height="49.5" fill="#DCE8F4" opacity="0.13"/><rect x="235.5" y="718.5" width="88.5" height="49.5" fill="#DCE8F4" opacity="0.05"/><rect x="235.5" y="774.0" width="88.5" height="49.5" fill="#DCE8F4" opacity="0.1"/><rect x="235.5" y="829.5" width="88.5" height="49.5" fill="#DCE8F4" opacity="0.26"/><rect x="330.0" y="219.0" width="88.5" height="49.5" fill="#DCE8F4" opacity="0.1"/><rect x="330.0" y="274.5" width="88.5" height="49.5" fill="#DCE8F4" opacity="0.08"/><rect x="330.0" y="330.0" width="88.5" height="49.5" fill="#DCE8F4" opacity="0.05"/><rect x="330.0" y="385.5" width="88.5" height="49.5" fill="#DCE8F4" opacity="0.18"/><rect x="330.0" y="441.0" width="88.5" height="49.5" fill="#DCE8F4" opacity="0.05"/><rect x="330.0" y="496.5" width="88.5" height="49.5" fill="#DCE8F4" opacity="0.13"/><rect x="330.0" y="552.0" width="88.5" height="49.5" fill="#DCE8F4" opacity="0.18"/><rect x="330.0" y="607.5" width="88.5" height="49.5" fill="#DCE8F4" opacity="0.08"/><rect x="330.0" y="663.0" width="88.5" height="49.5" fill="#DCE8F4" opacity="0.26"/><rect x="330.0" y="718.5" width="88.5" height="49.5" fill="#DCE8F4" opacity="0.18"/><rect x="330.0" y="774.0" width="88.5" height="49.5" fill="#DCE8F4" opacity="0.1"/><rect x="330.0" y="829.5" width="88.5" height="49.5" fill="#DCE8F4" opacity="0.06"/><rect x="424.5" y="219.0" width="88.5" height="49.5" fill="#DCE8F4" opacity="0.13"/><rect x="424.5" y="274.5" width="88.5" height="49.5" fill="#DCE8F4" opacity="0.05"/><rect x="424.5" y="330.0" width="88.5" height="49.5" fill="#DCE8F4" opacity="0.08"/><rect x="424.5" y="385.5" width="88.5" height="49.5" fill="#DCE8F4" opacity="0.08"/><rect x="424.5" y="441.0" width="88.5" height="49.5" fill="#DCE8F4" opacity="0.13"/><rect x="424.5" y="496.5" width="88.5" height="49.5" fill="#DCE8F4" opacity="0.18"/><rect x="424.5" y="552.0" width="88.5" height="49.5" fill="#DCE8F4" opacity="0.1"/><rect x="424.5" y="607.5" width="88.5" height="49.5" fill="#DCE8F4" opacity="0.06"/><rect x="424.5" y="663.0" width="88.5" height="49.5" fill="#DCE8F4" opacity="0.13"/><rect x="424.5" y="718.5" width="88.5" height="49.5" fill="#DCE8F4" opacity="0.1"/><rect x="424.5" y="774.0" width="88.5" height="49.5" fill="#DCE8F4" opacity="0.06"/><rect x="424.5" y="829.5" width="88.5" height="49.5" fill="#DCE8F4" opacity="0.05"/><rect x="519.0" y="219.0" width="88.5" height="49.5" fill="#DCE8F4" opacity="0.05"/><rect x="519.0" y="274.5" width="88.5" height="49.5" fill="#DCE8F4" opacity="0.26"/><rect x="519.0" y="330.0" width="88.5" height="49.5" fill="#DCE8F4" opacity="0.26"/><rect x="519.0" y="385.5" width="88.5" height="49.5" fill="#DCE8F4" opacity="0.05"/><rect x="519.0" y="441.0" width="88.5" height="49.5" fill="#DCE8F4" opacity="0.06"/><rect x="519.0" y="496.5" width="88.5" height="49.5" fill="#DCE8F4" opacity="0.1"/><rect x="519.0" y="552.0" width="88.5" height="49.5" fill="#DCE8F4" opacity="0.13"/><rect x="519.0" y="607.5" width="88.5" height="49.5" fill="#DCE8F4" opacity="0.26"/><rect x="519.0" y="663.0" width="88.5" height="49.5" fill="#DCE8F4" opacity="0.06"/><rect x="519.0" y="718.5" width="88.5" height="49.5" fill="#DCE8F4" opacity="0.18"/><rect x="519.0" y="774.0" width="88.5" height="49.5" fill="#DCE8F4" opacity="0.05"/><rect x="519.0" y="829.5" width="88.5" height="49.5" fill="#DCE8F4" opacity="0.05"/><rect x="613.5" y="219.0" width="88.5" height="49.5" fill="#DCE8F4" opacity="0.06"/><rect x="613.5" y="274.5" width="88.5" height="49.5" fill="#DCE8F4" opacity="0.26"/><rect x="613.5" y="330.0" width="88.5" height="49.5" fill="#DCE8F4" opacity="0.13"/><rect x="613.5" y="385.5" width="88.5" height="49.5" fill="#DCE8F4" opacity="0.1"/><rect x="613.5" y="441.0" width="88.5" height="49.5" fill="#DCE8F4" opacity="0.06"/><rect x="613.5" y="496.5" width="88.5" height="49.5" fill="#DCE8F4" opacity="0.18"/><rect x="613.5" y="552.0" width="88.5" height="49.5" fill="#DCE8F4" opacity="0.13"/><rect x="613.5" y="607.5" width="88.5" height="49.5" fill="#DCE8F4" opacity="0.18"/><rect x="613.5" y="663.0" width="88.5" height="49.5" fill="#DCE8F4" opacity="0.18"/><rect x="613.5" y="718.5" width="88.5" height="49.5" fill="#DCE8F4" opacity="0.13"/><rect x="613.5" y="774.0" width="88.5" height="49.5" fill="#DCE8F4" opacity="0.13"/><rect x="613.5" y="829.5" width="88.5" height="49.5" fill="#DCE8F4" opacity="0.05"/><rect x="708.0" y="219.0" width="88.5" height="49.5" fill="#DCE8F4" opacity="0.26"/><rect x="708.0" y="274.5" width="88.5" height="49.5" fill="#DCE8F4" opacity="0.13"/><rect x="708.0" y="330.0" width="88.5" height="49.5" fill="#DCE8F4" opacity="0.1"/><rect x="708.0" y="385.5" width="88.5" height="49.5" fill="#DCE8F4" opacity="0.26"/><rect x="708.0" y="441.0" width="88.5" height="49.5" fill="#DCE8F4" opacity="0.06"/><rect x="708.0" y="496.5" width="88.5" height="49.5" fill="#DCE8F4" opacity="0.08"/><rect x="708.0" y="552.0" width="88.5" height="49.5" fill="#DCE8F4" opacity="0.13"/><rect x="708.0" y="607.5" width="88.5" height="49.5" fill="#DCE8F4" opacity="0.05"/><rect x="708.0" y="663.0" width="88.5" height="49.5" fill="#DCE8F4" opacity="0.06"/><rect x="708.0" y="718.5" width="88.5" height="49.5" fill="#DCE8F4" opacity="0.1"/><rect x="708.0" y="774.0" width="88.5" height="49.5" fill="#DCE8F4" opacity="0.26"/><rect x="708.0" y="829.5" width="88.5" height="49.5" fill="#DCE8F4" opacity="0.1"/><rect x="802.5" y="219.0" width="88.5" height="49.5" fill="#DCE8F4" opacity="0.05"/><rect x="802.5" y="274.5" width="88.5" height="49.5" fill="#DCE8F4" opacity="0.06"/><rect x="802.5" y="330.0" width="88.5" height="49.5" fill="#DCE8F4" opacity="0.18"/><rect x="802.5" y="385.5" width="88.5" height="49.5" fill="#DCE8F4" opacity="0.08"/><rect x="802.5" y="441.0" width="88.5" height="49.5" fill="#DCE8F4" opacity="0.18"/><rect x="802.5" y="496.5" width="88.5" height="49.5" fill="#DCE8F4" opacity="0.08"/><rect x="802.5" y="552.0" width="88.5" height="49.5" fill="#DCE8F4" opacity="0.18"/><rect x="802.5" y="607.5" width="88.5" height="49.5" fill="#DCE8F4" opacity="0.08"/><rect x="802.5" y="663.0" width="88.5" height="49.5" fill="#DCE8F4" opacity="0.08"/><rect x="802.5" y="718.5" width="88.5" height="49.5" fill="#DCE8F4" opacity="0.13"/><rect x="802.5" y="774.0" width="88.5" height="49.5" fill="#DCE8F4" opacity="0.08"/><rect x="802.5" y="829.5" width="88.5" height="49.5" fill="#DCE8F4" opacity="0.18"/><g stroke="#E8EFF7" stroke-opacity=".14" stroke-width="1"><line x1="232.5" y1="206" x2="232.5" y2="892"/><line x1="327.0" y1="206" x2="327.0" y2="892"/><line x1="421.5" y1="206" x2="421.5" y2="892"/><line x1="516.0" y1="206" x2="516.0" y2="892"/><line x1="610.5" y1="206" x2="610.5" y2="892"/><line x1="705.0" y1="206" x2="705.0" y2="892"/><line x1="799.5" y1="206" x2="799.5" y2="892"/></g><g stroke="#EAF3FB" stroke-opacity=".9" stroke-width="3.2" fill="none"><line x1="325" y1="198" x2="325" y2="391"/><line x1="348" y1="198" x2="348" y2="406"/></g><g transform="translate(325,391) scale(1.452)" opacity=".96"><rect x="-13" y="-4" width="42" height="9" rx="4.5" fill="#12203A"/><circle cx="4" cy="-16" r="11" fill="#12203A"/><path d="M-7 -16a11 11 0 0 1 22 0z" fill="#2E9BC9"/><rect x="-8" y="-5" width="26" height="34" rx="11" fill="#12203A"/><rect x="-8" y="4" width="26" height="6" fill="#2E9BC9" opacity=".9"/><path d="M-6 29 l-16 20" stroke="#12203A" stroke-width="10" stroke-linecap="round"/><path d="M16 29 l14 22" stroke="#12203A" stroke-width="10" stroke-linecap="round"/><path d="M18 2 l14 8" stroke="#12203A" stroke-width="8" stroke-linecap="round"/><circle cx="34" cy="12" r="7" fill="#EAF3FB"/><circle cx="34" cy="12" r="3" fill="#2E9BC9"/></g><rect x="0" y="896" width="1200" height="4" fill="#0E1526" opacity=".35"/><rect width="1200" height="900" filter="url(#grp103)" opacity=".07" style="mix-blend-mode:overlay"/><g opacity=".62" transform="translate(1170,872)"><text x="0" y="0" text-anchor="end" font-family="Outfit, Inter, system-ui, sans-serif" font-size="15" letter-spacing="2.2" fill="#EAF3FB">IMAGEN DE REFERENCIA</text></g></svg>