<svg xmlns="http://www.w3.org/2000/svg" viewBox="0 0 1200 900" width="1200" height="900" role="img" aria-label="Ilustración de referencia — proyecto-05"><defs><linearGradient id="skyp104" x1="0" y1="0" x2="1" y2="1"><stop offset="0" stop-color="#5C638A"/><stop offset=".55" stop-color="#7C8EAE"/><stop offset="1" stop-color="#9DB3CB"/></linearGradient><linearGradient id="blkp104" x1="0" y1="0" x2="0" y2="1"><stop offset="0" stop-color="#0E1526" stop-opacity=".34"/><stop offset="1" stop-color="#0E1526" stop-opacity=".72"/></linearGradient><radialGradient id="glowp104" cx=".5" cy=".5" r=".5"><stop offset="0" stop-color="#8FD3F2" stop-opacity=".50"/><stop offset=".45" stop-color="#2E9BC9" stop-opacity=".20"/><stop offset="1" stop-color="#2E9BC9" stop-opacity="0"/></radialGradient><linearGradient id="hazep104" x1="0" y1="0" x2="0" y2="1"><stop offset="0" stop-color="#C6D6E6" stop-opacity="0"/><stop offset="1" stop-color="#C6D6E6" stop-opacity=".30"/></linearGradient><filter id="grp104"><feTurbulence type="fractalNoise" baseFrequency="0.9" numOctaves="3" stitchTiles="stitch"/><feColorMatrix type="saturate" values="0"/></filter></defs><rect width="1200" height="900" fill="url(#skyp104)"/><circle cx="200" cy="191" r="558" fill="url(#glowp104)"/><rect x="0" y="405" width="1200" height="495" fill="url(#hazep104)"/><g fill="#0E1526" opacity=".16"><rect x="-40" y="638" width="89" height="262" rx="2"/><rect x="65" y="556" width="60" height="344" rx="2"/><rect x="135" y="505" width="62" height="395" rx="2"/><rect x="208" y="509" width="73" height="391" rx="2"/><rect x="291" y="719" width="75" height="181" rx="2"/><rect x="392" y="644" width="102" height="256" rx="2"/><rect x="520" y="518" width="67" height="382" rx="2"/><rect x="599" y="673" width="134" height="227" rx="2"/><rect x="751" y="496" width="101" height="404" rx="2"/><rect x="877" y="578" width="81" height="322" rx="2"/><rect x="973" y="728" width="112" height="172" rx="2"/><rect x="1105" y="601" width="117" height="299" rx="2"/><rect x="1235" y="492" width="93" height="408" rx="2"/></g><rect x="192" y="54" width="624" height="846" fill="url(#blkp104)"/><rect x="192" y="54" width="624" height="846" fill="none" stroke="#E8EFF7" stroke-opacity=".28"/><rect x="213.0" y="75.0" width="59.3" height="109.7" fill="#DCE8F4" opacity="0.06"/><rect x="213.0" y="190.7" width="59.3" height="109.7" fill="#DCE8F4" opacity="0.06"/><rect x="213.0" y="306.4" width="59.3" height="109.7" fill="#DCE8F4" opacity="0.18"/><rect x="213.0" y="422.1" width="59.3" height="109.7" fill="#DCE8F4" opacity="0.05"/><rect x="213.0" y="537.9" width="59.3" height="109.7" fill="#DCE8F4" opacity="0.05"/><rect x="213.0" y="653.6" width="59.3" height="109.7" fill="#DCE8F4" opacity="0.06"/><rect x="213.0" y="769.3" width="59.3" height="109.7" fill="#DCE8F4" opacity="0.05"/><rect x="278.3" y="75.0" width="59.3" height="109.7" fill="#DCE8F4" opacity="0.08"/><rect x="278.3" y="190.7" width="59.3" height="109.7" fill="#DCE8F4" opacity="0.1"/><rect x="278.3" y="306.4" width="59.3" height="109.7" fill="#DCE8F4" opacity="0.18"/><rect x="278.3" y="422.1" width="59.3" height="109.7" fill="#DCE8F4" opacity="0.13"/><rect x="278.3" y="537.9" width="59.3" height="109.7" fill="#DCE8F4" opacity="0.1"/><rect x="278.3" y="653.6" width="59.3" height="109.7" fill="#DCE8F4" opacity="0.06"/><rect x="278.3" y="769.3" width="59.3" height="109.7" fill="#DCE8F4" opacity="0.1"/><rect x="343.7" y="75.0" width="59.3" height="109.7" fill="#DCE8F4" opacity="0.18"/><rect x="343.7" y="190.7" width="59.3" height="109.7" fill="#DCE8F4" opacity="0.18"/><rect x="343.7" y="306.4" width="59.3" height="109.7" fill="#DCE8F4" opacity="0.08"/><rect x="343.7" y="422.1" width="59.3" height="109.7" fill="#DCE8F4" opacity="0.05"/><rect x="343.7" y="537.9" width="59.3" height="109.7" fill="#DCE8F4" opacity="0.05"/><rect x="343.7" y="653.6" width="59.3" height="109.7" fill="#DCE8F4" opacity="0.06"/><rect x="343.7" y="769.3" width="59.3" height="109.7" fill="#DCE8F4" opacity="0.06"/><rect x="409.0" y="75.0" width="59.3" height="109.7" fill="#DCE8F4" opacity="0.26"/><rect x="409.0" y="190.7" width="59.3" height="109.7" fill="#DCE8F4" opacity="0.26"/><rect x="409.0" y="306.4" width="59.3" height="109.7" fill="#DCE8F4" opacity="0.13"/><rect x="409.0" y="422.1" width="59.3" height="109.7" fill="#DCE8F4" opacity="0.05"/><rect x="409.0" y="537.9" width="59.3" height="109.7" fill="#DCE8F4" opacity="0.05"/><rect x="409.0" y="653.6" width="59.3" height="109.7" fill="#DCE8F4" opacity="0.18"/><rect x="409.0" y="769.3" width="59.3" height="109.7" fill="#DCE8F4" opacity="0.13"/><rect x="474.3" y="75.0" width="59.3" height="109.7" fill="#DCE8F4" opacity="0.26"/><rect x="474.3" y="190.7" width="59.3" height="109.7" fill="#DCE8F4" opacity="0.08"/><rect x="474.3" y="306.4" width="59.3" height="109.7" fill="#DCE8F4" opacity="0.08"/><rect x="474.3" y="422.1" width="59.3" height="109.7" fill="#DCE8F4" opacity="0.08"/><rect x="474.3" y="537.9" width="59.3" height="109.7" fill="#DCE8F4" opacity="0.08"/><rect x="474.3" y="653.6" width="59.3" height="109.7" fill="#DCE8F4" opacity="0.05"/><rect x="474.3" y="769.3" width="59.3" height="109.7" fill="#DCE8F4" opacity="0.18"/><rect x="539.7" y="75.0" width="59.3" height="109.7" fill="#DCE8F4" opacity="0.08"/><rect x="539.7" y="190.7" width="59.3" height="109.7" fill="#DCE8F4" opacity="0.06"/><rect x="539.7" y="306.4" width="59.3" height="109.7" fill="#DCE8F4" opacity="0.18"/><rect x="539.7" y="422.1" width="59.3" height="109.7" fill="#DCE8F4" opacity="0.13"/><rect x="539.7" y="537.9" width="59.3" height="109.7" fill="#DCE8F4" opacity="0.06"/><rect x="539.7" y="653.6" width="59.3" height="109.7" fill="#DCE8F4" opacity="0.08"/><rect x="539.7" y="769.3" width="59.3" height="109.7" fill="#DCE8F4" opacity="0.13"/><rect x="605.0" y="75.0" width="59.3" height="109.7" fill="#DCE8F4" opacity="0.08"/><rect x="605.0" y="190.7" width="59.3" height="109.7" fill="#DCE8F4" opacity="0.08"/><rect x="605.0" y="306.4" width="59.3" height="109.7" fill="#DCE8F4" opacity="0.18"/><rect x="605.0" y="422.1" width="59.3" height="109.7" fill="#DCE8F4" opacity="0.13"/><rect x="605.0" y="537.9" width="59.3" height="109.7" fill="#DCE8F4" opacity="0.06"/><rect x="605.0" y="653.6" width="59.3" height="109.7" fill="#DCE8F4" opacity="0.06"/><rect x="605.0" y="769.3" width="59.3" height="109.7" fill="#DCE8F4" opacity="0.08"/><rect x="670.3" y="75.0" width="59.3" height="109.7" fill="#DCE8F4" opacity="0.06"/><rect x="670.3" y="190.7" width="59.3" height="109.7" fill="#DCE8F4" opacity="0.06"/><rect x="670.3" y="306.4" width="59.3" height="109.7" fill="#DCE8F4" opacity="0.08"/><rect x="670.3" y="422.1" width="59.3" height="109.7" fill="#DCE8F4" opacity="0.05"/><rect x="670.3" y="537.9" width="59.3" height="109.7" fill="#DCE8F4" opacity="0.26"/><rect x="670.3" y="653.6" width="59.3" height="109.7" fill="#DCE8F4" opacity="0.08"/><rect x="670.3" y="769.3" width="59.3" height="109.7" fill="#DCE8F4" opacity="0.06"/><rect x="735.7" y="75.0" width="59.3" height="109.7" fill="#DCE8F4" opacity="0.06"/><rect x="735.7" y="190.7" width="59.3" height="109.7" fill="#DCE8F4" opacity="0.13"/><rect x="735.7" y="306.4" width="59.3" height="109.7" fill="#DCE8F4" opacity="0.18"/><rect x="735.7" y="422.1" width="59.3" height="109.7" fill="#DCE8F4" opacity="0.18"/><rect x="735.7" y="537.9" width="59.3" height="109.7" fill="#DCE8F4" opacity="0.26"/><rect x="735.7" y="653.6" width="59.3" height="109.7" fill="#DCE8F4" opacity="0.13"/><rect x="735.7" y="769.3" width="59.3" height="109.7" fill="#DCE8F4" opacity="0.26"/><g stroke="#E8EFF7" stroke-opacity=".14" stroke-width="1"><line x1="275.3" y1="62" x2="275.3" y2="892"/><line x1="340.7" y1="62" x2="340.7" y2="892"/><line x1="406.0" y1="62" x2="406.0" y2="892"/><line x1="471.3" y1="62" x2="471.3" y2="892"/><line x1="536.7" y1="62" x2="536.7" y2="892"/><line x1="602.0" y1="62" x2="602.0" y2="892"/><line x1="667.3" y1="62" x2="667.3" y2="892"/><line x1="732.7" y1="62" x2="732.7" y2="892"/></g><g stroke="#EAF3FB" stroke-opacity=".9" stroke-width="3.2" fill="none"><line x1="684" y1="54" x2="684" y2="367"/><line x1="707" y1="54" x2="707" y2="382"/></g><g transform="translate(684,367) scale(1.452)" opacity=".96"><rect x="-13" y="-4" width="42" height="9" rx="4.5" fill="#12203A"/><circle cx="4" cy="-16" r="11" fill="#12203A"/><path d="M-7 -16a11 11 0 0 1 22 0z" fill="#2E9BC9"/><rect x="-8" y="-5" width="26" height="34" rx="11" fill="#12203A"/><rect x="-8" y="4" width="26" height="6" fill="#2E9BC9" opacity=".9"/><path d="M-6 29 l-16 20" stroke="#12203A" stroke-width="10" stroke-linecap="round"/><path d="M16 29 l14 22" stroke="#12203A" stroke-width="10" stroke-linecap="round"/><path d="M18 2 l14 8" stroke="#12203A" stroke-width="8" stroke-linecap="round"/><circle cx="34" cy="12" r="7" fill="#EAF3FB"/><circle cx="34" cy="12" r="3" fill="#2E9BC9"/></g><rect x="0" y="896" width="1200" height="4" fill="#0E1526" opacity=".35"/><rect width="1200" height="900" filter="url(#grp104)" opacity=".07" style="mix-blend-mode:overlay"/><g opacity=".62" transform="translate(1170,872)"><text x="0" y="0" text-anchor="end" font-family="Outfit, Inter, system-ui, sans-serif" font-size="15" letter-spacing="2.2" fill="#EAF3FB">IMAGEN DE REFERENCIA</text></g></svg>