<svg xmlns="http://www.w3.org/2000/svg" viewBox="0 0 1200 900" width="1200" height="900" role="img" aria-label="Ilustración de referencia — proyecto-03"><defs><linearGradient id="skyp102" x1="0" y1="0" x2="1" y2="1"><stop offset="0" stop-color="#5C638A"/><stop offset=".55" stop-color="#7C8EAE"/><stop offset="1" stop-color="#9DB3CB"/></linearGradient><linearGradient id="blkp102" x1="0" y1="0" x2="0" y2="1"><stop offset="0" stop-color="#0E1526" stop-opacity=".34"/><stop offset="1" stop-color="#0E1526" stop-opacity=".72"/></linearGradient><radialGradient id="glowp102" cx=".5" cy=".5" r=".5"><stop offset="0" stop-color="#8FD3F2" stop-opacity=".50"/><stop offset=".45" stop-color="#2E9BC9" stop-opacity=".20"/><stop offset="1" stop-color="#2E9BC9" stop-opacity="0"/></radialGradient><linearGradient id="hazep102" x1="0" y1="0" x2="0" y2="1"><stop offset="0" stop-color="#C6D6E6" stop-opacity="0"/><stop offset="1" stop-color="#C6D6E6" stop-opacity=".30"/></linearGradient><filter id="grp102"><feTurbulence type="fractalNoise" baseFrequency="0.9" numOctaves="3" stitchTiles="stitch"/><feColorMatrix type="saturate" values="0"/></filter></defs><rect width="1200" height="900" fill="url(#skyp102)"/><circle cx="331" cy="273" r="558" fill="url(#glowp102)"/><rect x="0" y="405" width="1200" height="495" fill="url(#hazep102)"/><g fill="#0E1526" opacity=".16"><rect x="-40" y="597" width="81" height="303" rx="2"/><rect x="66" y="640" width="83" height="260" rx="2"/><rect x="164" y="629" width="139" height="271" rx="2"/><rect x="327" y="727" width="134" height="173" rx="2"/><rect x="483" y="580" width="129" height="320" rx="2"/><rect x="634" y="550" width="83" height="350" rx="2"/><rect x="735" y="680" width="116" height="220" rx="2"/><rect x="873" y="717" width="76" height="183" rx="2"/><rect x="956" y="691" width="148" height="209" rx="2"/><rect x="1129" y="625" width="133" height="275" rx="2"/></g><rect x="72" y="396" width="1056" height="504" fill="url(#blkp102)"/><rect x="72" y="396" width="1056" height="504" fill="none" stroke="#E8EFF7" stroke-opacity=".28"/><rect x="93.0" y="417.0" width="107.3" height="228.0" fill="#DCE8F4" opacity="0.13"/><rect x="93.0" y="651.0" width="107.3" height="228.0" fill="#DCE8F4" opacity="0.18"/><rect x="206.3" y="417.0" width="107.3" height="228.0" fill="#DCE8F4" opacity="0.13"/><rect x="206.3" y="651.0" width="107.3" height="228.0" fill="#DCE8F4" opacity="0.26"/><rect x="319.7" y="417.0" width="107.3" height="228.0" fill="#DCE8F4" opacity="0.13"/><rect x="319.7" y="651.0" width="107.3" height="228.0" fill="#DCE8F4" opacity="0.26"/><rect x="433.0" y="417.0" width="107.3" height="228.0" fill="#DCE8F4" opacity="0.06"/><rect x="433.0" y="651.0" width="107.3" height="228.0" fill="#DCE8F4" opacity="0.08"/><rect x="546.3" y="417.0" width="107.3" height="228.0" fill="#DCE8F4" opacity="0.18"/><rect x="546.3" y="651.0" width="107.3" height="228.0" fill="#DCE8F4" opacity="0.06"/><rect x="659.7" y="417.0" width="107.3" height="228.0" fill="#DCE8F4" opacity="0.05"/><rect x="659.7" y="651.0" width="107.3" height="228.0" fill="#DCE8F4" opacity="0.1"/><rect x="773.0" y="417.0" width="107.3" height="228.0" fill="#DCE8F4" opacity="0.13"/><rect x="773.0" y="651.0" width="107.3" height="228.0" fill="#DCE8F4" opacity="0.26"/><rect x="886.3" y="417.0" width="107.3" height="228.0" fill="#DCE8F4" opacity="0.08"/><rect x="886.3" y="651.0" width="107.3" height="228.0" fill="#DCE8F4" opacity="0.18"/><rect x="999.7" y="417.0" width="107.3" height="228.0" fill="#DCE8F4" opacity="0.13"/><rect x="999.7" y="651.0" width="107.3" height="228.0" fill="#DCE8F4" opacity="0.26"/><g stroke="#E8EFF7" stroke-opacity=".14" stroke-width="1"><line x1="203.3" y1="404" x2="203.3" y2="892"/><line x1="316.7" y1="404" x2="316.7" y2="892"/><line x1="430.0" y1="404" x2="430.0" y2="892"/><line x1="543.3" y1="404" x2="543.3" y2="892"/><line x1="656.7" y1="404" x2="656.7" y2="892"/><line x1="770.0" y1="404" x2="770.0" y2="892"/><line x1="883.3" y1="404" x2="883.3" y2="892"/><line x1="996.7" y1="404" x2="996.7" y2="892"/></g><rect x="0" y="896" width="1200" height="4" fill="#0E1526" opacity=".35"/><rect width="1200" height="900" filter="url(#grp102)" opacity=".07" style="mix-blend-mode:overlay"/><g opacity=".62" transform="translate(1170,872)"><text x="0" y="0" text-anchor="end" font-family="Outfit, Inter, system-ui, sans-serif" font-size="15" letter-spacing="2.2" fill="#EAF3FB">IMAGEN DE REFERENCIA</text></g></svg>